<mxfile host="app.diagrams.net" modified="2023-04-02T16:44:23.831Z" agent="Mozilla/5.0 (Windows NT 10.0; Win64; x64) AppleWebKit/537.36 (KHTML, like Gecko) Chrome/111.0.0.0 Safari/537.36 Edg/111.0.1661.54" version="21.1.2" etag="qU_GU7l-JvEM--knl1U0" type="github">
  <diagram name="PÃ¡gina-1" id="2Ptvhzt_i48_mJHpRBuN">
    <mxGraphModel>
      <root>
        <mxCell id="0" />
        <mxCell id="1" parent="0" />
      </root>
    </mxGraphModel>
  </diagram>
</mxfile>
